<svg xmlns="http://www.w3.org/2000/svg" version="1.1" xmlns:xlink="http://www.w3.org/1999/xlink" xmlns:svgjs="http://svgjs.dev/svgjs" width="1000" height="623" viewBox="0 0 1000 623"><g transform="matrix(1,0,0,1,-0.6060606060606233,0.2522267206477409)"><svg viewBox="0 0 396 247" data-background-color="#b19dd0" preserveAspectRatio="xMidYMid meet" height="623" width="1000" xmlns="http://www.w3.org/2000/svg" xmlns:xlink="http://www.w3.org/1999/xlink"><g id="tight-bounds" transform="matrix(1,0,0,1,0.2400000000000091,-0.09999999999999432)"><svg viewBox="0 0 395.52 247.2" height="247.2" width="395.52"><g><svg></svg></g><g><svg viewBox="0 0 395.52 247.2" height="247.2" width="395.52"><g transform="matrix(1,0,0,1,39.55199999999999,56.81593234672303)"><svg viewBox="0 0 316.416 133.56813530655393" height="133.56813530655393" width="316.416"><g><svg viewBox="0 0 316.416 133.56813530655393" height="133.56813530655393" width="316.416"><g><svg viewBox="0 0 316.416 133.56813530655393" height="133.56813530655393" width="316.416"><g><svg viewBox="0 0 316.416 133.56813530655393" height="133.56813530655393" width="316.416"><g id="textblocktransform"><svg viewBox="0 0 316.416 133.56813530655393" height="133.56813530655393" width="316.416" id="textblock"><g><svg viewBox="0 0 316.416 133.56813530655393" height="133.56813530655393" width="316.416"><g transform="matrix(1,0,0,1,0,0)"><svg width="316.416" viewBox="-3.15 -42.05 142.89000000000001 60.9" height="133.56813530655393" data-palette-color="#7a26c1"><path d="M37.35-10.75L37.35-10.75 38.95-8.3Q36.5 0.3 28.8 0.3L28.8 0.3Q27.05 0.3 25.78-0.35 24.5-1 23.85-1.9 23.2-2.8 22.8-4.2L22.8-4.2Q22.25-6.3 22.23-9.75 22.2-13.2 21.38-14.5 20.55-15.8 18.25-15.95L18.25-15.95 18.8-20.2Q18.9-20.2 18.95-20.2L18.95-20.2Q21.85-20.2 23.75-21.85L23.75-21.85Q25.8-23.7 25.8-26.6 25.8-29.5 23.08-31.5 20.35-33.5 16.05-33.5L16.05-33.5Q10.5-33.5 7.5-30.75L7.5-30.75Q5.9-29.25 5.9-27.15L5.9-27.15Q5.9-24.5 9.95-23.95L9.95-23.95 9.25-20.2Q6.2-20.35 3.85-22.25 1.5-24.15 1.5-27.15L1.5-27.15Q1.5-32.4 5.9-35.23 10.3-38.05 17.05-38.05L17.05-38.05Q21.4-38.05 24.7-37L24.7-37Q30.35-35.1 32.2-30.4L32.2-30.4Q32.8-28.75 32.8-27.73 32.8-26.7 32.8-26.35L32.8-26.35Q32.6-23.6 30.78-20.95 28.95-18.3 25.3-17.3L25.3-17.3Q27.5-16.85 28.3-15.4 29.1-13.95 29.15-11L29.15-11Q29.2-5.95 29.63-4.88 30.05-3.8 31.4-3.8L31.4-3.8Q35.05-3.8 37.35-10.75ZM6.7 0.3L6.7 0.3Q4.05 0.3 2.45-1.3 0.85-2.9 0.85-5.25L0.85-5.25Q0.85-11.35 9.8-15.45L9.8-15.45Q11.6-29.45 11.65-29.8L11.65-29.8Q13.75-31.15 16.4-31.15L16.4-31.15Q17.5-31.15 18.9-30.85L18.9-30.85 15.75-9.5Q14.25 0.3 6.7 0.3ZM4.55-5.85L4.55-5.85Q4.55-4.25 6.25-4.25L6.25-4.25Q8.25-4.25 8.8-7.85L8.8-7.85 9.25-11.25Q4.55-8.5 4.55-5.85ZM48.2-24.05L48.2-24.05Q52.8-24.05 55.87-21.1 58.95-18.15 58.95-13.9L58.95-13.9Q58.95-7.45 55.17-3.58 51.4 0.3 46.05 0.3 40.7 0.3 37.57-2.75 34.45-5.8 34.45-10.3L34.45-10.3Q34.45-16.6 38.3-20.3L38.3-20.3Q42.2-24.05 48.2-24.05ZM47.22-20Q44.85-20 43.25-17.3 41.65-14.6 41.5-10.5L41.5-10.5Q41.5-7.6 42.67-5.7 43.85-3.8 46.25-3.8 48.65-3.8 50.27-6.45 51.9-9.1 51.9-12.5 51.9-15.9 50.75-17.9L50.75-17.9Q49.6-20 47.22-20ZM76.75-16.95L76.75-16.95Q76.75-20.2 73.85-20.2L73.85-20.2Q71.7-20.2 70-17.75L70-17.75Q68.2-15.1 68.2-11.55 68.2-8 69.77-6.08 71.35-4.15 74.1-4.15L74.1-4.15Q77.4-4.15 81.07-6.85 84.75-9.55 87-13.55L87-13.55Q88-12.8 88.95-10.8L88.95-10.8Q87.5-7.9 83.55-4.3L83.55-4.3Q81.5-2.4 78.45-1.1L78.45-1.1Q75.15 0.3 71.85 0.3L71.85 0.3Q67.4 0.3 64.32-2.75 61.25-5.8 61.25-10.7L61.25-10.7Q61.25-16.65 65.25-20.35 69.25-24.05 74.2-24.05L74.2-24.05Q78.05-24.05 80.3-22.45 82.55-20.85 82.55-18.25L82.55-18.25Q82.55-16.55 81.35-15.3L81.35-15.3Q79.15-13.1 76-13.1L76-13.1Q76.75-15.6 76.75-16.95ZM107.19-18L107.19-18Q107.19-12.8 100.99-10.05L100.99-10.05Q101.14-9.15 101.44-7.9L101.44-7.9Q102.34-4.2 104.44-4.1L104.44-4.1Q104.59-4.1 104.74-4.1L104.74-4.1Q108.74-4.1 110.69-11.15L110.69-11.15Q111.74-10.2 112.69-8.3L112.69-8.3Q111.99-5.6 110.72-3.75 109.44-1.9 107.94-1.1L107.94-1.1Q105.29 0.3 102.94 0.3L102.94 0.3Q97.44 0.3 95.24-5.85L95.24-5.85Q94.39-8.3 94.09-10.85L94.09-10.85Q96.94-11.55 98.59-13.18 100.24-14.8 100.24-16.65L100.24-16.65Q100.24-19.85 97.04-19.85L97.04-19.85Q95.29-19.85 94.04-18.53 92.79-17.2 92.39-15.35L92.39-15.35Q92.09-12.8 91.42-7.33 90.74-1.85 90.54 0L90.54 0 83.89 0Q87.49-30.65 88.24-37.65L88.24-37.65Q89.29-38.05 91.09-38.05L91.09-38.05Q94.99-38.05 94.99-35.75L94.99-35.75 94.99-35.45Q93.99-26.4 93.14-21.6L93.14-21.6Q95.89-24.15 100.04-24.15L100.04-24.15Q103.14-24.15 105.17-22.55 107.19-20.95 107.19-18ZM117.94 14.85L117.94 14.85Q115.09 14.85 113.04 13.13 110.99 11.4 110.99 8.1L110.99 8.1Q110.99 4.05 115.09 0.2L115.09 0.2Q112.19-0.05 110.44-1.7 108.69-3.35 108.69-6.35L108.69-6.35Q108.69-7.75 109.04-10.55 109.39-13.35 109.79-16.6 110.19-19.85 110.64-23.5L110.64-23.5Q112.19-24.05 113.49-24.05 114.79-24.05 115.44-23.95 116.09-23.85 116.69-23.2 117.29-22.55 117.29-21.35L117.29-21.35 115.64-8.6Q115.54-7.8 115.54-7.5L115.54-7.5Q115.54-4.55 118.24-4.55L118.24-4.55Q120.69-4.55 122.24-6.85L122.24-6.85Q122.39-8 122.99-13.48 123.59-18.95 123.99-22L123.99-22Q124.44-22.95 125.87-23.5 127.29-24.05 128.19-24.05L128.19-24.05Q129.79-24.05 131.09-23.65L131.09-23.65 128.74-5.2Q134.59-4.15 135.74 2.85L135.74 2.85Q135.54 3.8 133.84 5.85L133.84 5.85Q132.84-0.4 128.34-1.75L128.34-1.75 127.54 4.5Q126.99 9 124.69 11.93 122.39 14.85 117.94 14.85ZM114.89 7.15Q114.89 8.8 115.69 9.6 116.49 10.4 117.82 10.4 119.14 10.4 119.84 9.3 120.54 8.2 120.94 4.9L120.94 4.9 121.59-0.6Q115.04 2.8 114.89 7.15L114.89 7.15Z" opacity="1" transform="matrix(1,0,0,1,0,0)" fill="#7a26c1" class="wordmark-text-0" data-fill-palette-color="primary" id="text-0"></path></svg></g></svg></g></svg></g></svg></g></svg></g></svg></g></svg></g><g><path d="M0 247.2v-247.2h395.52v247.2zM384.882 236.562v-225.924h-374.244v225.924z" fill="#7a26c1" fill-rule="nonzero" stroke="none" stroke-width="1" stroke-linecap="butt" stroke-linejoin="miter" stroke-miterlimit="10" stroke-dasharray="" stroke-dashoffset="0" font-family="none" font-weight="none" font-size="none" text-anchor="none" style="mix-blend-mode: normal" data-fill-palette-color="tertiary"></path></g></svg></g><defs></defs></svg><rect width="395.52" height="247.2" fill="none" stroke="none" visibility="hidden"></rect></g></svg></g></svg>